# xmcd CD database file
#
# Track frame offsets:
#	150
#	20676
#	38768
#	64840
#	90409
#	110224
#	132353
#	153645
#	170649
#	188417
#	201677
#	222101
#	235382
#
# Disc length: 3279 seconds
#
# Revision: 0
# Processed by: cddbd v1.5.2PL0 Copyright (c) Steve Scherf et al.
# Submitted via: CDex 1.79
#
DISCID=be0ccd0d
DTITLE=Martin McCoy - Music From Louisiana - Musique De La Louisianne
DYEAR=2010
DGENRE=Country
TTITLE0=Sunset On Louisianne
TTITLE1=Bayou Pompon
TTITLE2=Fille De Wammou
TTITLE3=La Ballade De Howart Hebert
TTITLE4=Travailler C'est Trop Dur
TTITLE5='Pov 'Ti 'Neg
TTITLE6=Warjolaine
TTITLE7=Missisippi You're On My Mind
TTITLE8=Pay Calien
TTITLE9=Rose Acadienne
TTITLE10=Lake Charles
TTITLE11=Les Acordeons Acadiens
TTITLE12=L'Air De La Louisianne
EXTD=YEAR: 2010
EXTT0=
EXTT1=
EXTT2=
EXTT3=
EXTT4=
EXTT5=
EXTT6=
EXTT7=
EXTT8=
EXTT9=
EXTT10=
EXTT11=
EXTT12=
PLAYORDER=
